<svg width="42" height="42" viewBox="0 0 42 42" fill="none" xmlns="http://www.w3.org/2000/svg">
<path d="M21 -1.52588e-05C16.8466 -1.52588e-05 12.7865 1.23161 9.33303 3.53912C5.8796 5.84663 3.18798 9.12638 1.59854 12.9636C0.00909917 16.8009 -0.406771 21.0233 0.403518 25.0969C1.21381 29.1705 3.21386 32.9123 6.15077 35.8492C9.08767 38.7861 12.8295 40.7862 16.9031 41.5965C20.9767 42.4068 25.1991 41.9909 29.0364 40.4014C32.8736 38.812 36.1534 36.1204 38.4609 32.667C40.7684 29.2135 42 25.1534 42 21C42 15.4304 39.7875 10.089 35.8492 6.15074C31.911 2.21248 26.5696 -1.52588e-05 21 -1.52588e-05ZM21 39.662C17.309 39.662 13.7009 38.5675 10.632 36.5169C7.56301 34.4663 5.17105 31.5517 3.75857 28.1416C2.34609 24.7316 1.97652 20.9793 2.69659 17.3592C3.41667 13.7391 5.19405 10.4139 7.80398 7.80396C10.4139 5.19403 13.7392 3.41665 17.3592 2.69657C20.9793 1.97649 24.7316 2.34606 28.1416 3.75854C31.5517 5.17103 34.4663 7.56298 36.5169 10.6319C38.5675 13.7009 39.662 17.309 39.662 21C39.6546 25.9472 37.6861 30.6896 34.1879 34.1878C30.6897 37.686 25.9472 39.6546 21 39.662Z" fill="white"/>
<path d="M18.074 24.626L13.594 20.146L11.606 22.12L18.074 28.574L31.654 14.994L29.68 13.006L18.074 24.626Z" fill="white"/>
</svg>
