<svg width="34" height="32" viewBox="0 0 34 32" fill="none" xmlns="http://www.w3.org/2000/svg">
<path d="M33.7537 5.16796C33.6482 5.03084 33.5126 4.91972 33.3575 4.84312C33.2023 4.76652 33.0317 4.72648 32.8586 4.72607H6.94563L5.60296 0.788697C5.52726 0.564565 5.3833 0.369749 5.19128 0.231573C4.99925 0.0933971 4.76879 0.0187911 4.53222 0.018219H1.13306C0.832551 0.018219 0.544353 0.137594 0.331864 0.350083C0.119375 0.562572 0 0.85077 0 1.15127C0 1.45178 0.119375 1.73998 0.331864 1.95247C0.544353 2.16496 0.832551 2.28433 1.13306 2.28433H3.72209L11.1719 24.1806C11.2486 24.4037 11.393 24.5973 11.5849 24.7344C11.7768 24.8715 12.0068 24.9453 12.2427 24.9454H28.3264C28.6269 24.9454 28.9151 24.8261 29.1276 24.6136C29.3401 24.4011 29.4594 24.1129 29.4594 23.8124C29.4594 23.5119 29.3401 23.2237 29.1276 23.0112C28.9151 22.7987 28.6269 22.6793 28.3264 22.6793H13.0301L12.203 20.2376H29.4594C29.7095 20.2387 29.9529 20.1571 30.1517 20.0054C30.3505 19.8537 30.4935 19.6406 30.5585 19.3991L33.9577 6.15372C34.0019 5.9848 34.0066 5.80794 33.9712 5.63694C33.9358 5.46595 33.8614 5.30544 33.7537 5.16796ZM28.5813 17.9715H11.4552L7.71611 6.99218H31.397L28.5813 17.9715Z" fill="#EF7E3D"/>
<path d="M15.8628 25.9085C11.8517 26.0332 11.8517 31.8514 15.8628 31.9817C19.8738 31.8627 19.8738 26.0332 15.8628 25.9085ZM15.8628 29.7156C15.6584 29.7156 15.4624 29.6344 15.3179 29.4899C15.1735 29.3454 15.0923 29.1495 15.0923 28.9451C15.0923 28.7408 15.1735 28.5448 15.3179 28.4003C15.4624 28.2558 15.6584 28.1747 15.8628 28.1747C16.0671 28.1747 16.2631 28.2558 16.4076 28.4003C16.5521 28.5448 16.6332 28.7408 16.6332 28.9451C16.6332 29.1495 16.5521 29.3454 16.4076 29.4899C16.2631 29.6344 16.0671 29.7156 15.8628 29.7156Z" fill="#EF7E3D"/>
<path d="M25.726 25.9085C21.715 26.0332 21.715 31.8514 25.726 31.9817C29.7371 31.8627 29.7371 26.0332 25.726 25.9085ZM25.726 29.7156C25.5217 29.7156 25.3257 29.6344 25.1812 29.4899C25.0367 29.3454 24.9556 29.1495 24.9556 28.9451C24.9556 28.7408 25.0367 28.5448 25.1812 28.4003C25.3257 28.2558 25.5217 28.1747 25.726 28.1747C25.9304 28.1747 26.1264 28.2558 26.2708 28.4003C26.4153 28.5448 26.4965 28.7408 26.4965 28.9451C26.4965 29.1495 26.4153 29.3454 26.2708 29.4899C26.1264 29.6344 25.9304 29.7156 25.726 29.7156Z" fill="#EF7E3D"/>
</svg>
