<svg width="34" height="35" viewBox="0 0 34 35" fill="none" xmlns="http://www.w3.org/2000/svg">
<path d="M23.0207 25.9232C22.4626 25.3719 21.7257 25.0385 20.9432 24.983C20.1607 24.9276 19.3842 25.1537 18.7539 25.6207L17.9189 26.2453C17.6403 26.4496 17.298 26.548 16.9534 26.5227C16.6088 26.4974 16.2845 26.3501 16.0386 26.1073L8.93821 19.0134C8.69464 18.7664 8.5475 18.4404 8.52339 18.0943C8.49927 17.7482 8.59977 17.4049 8.80672 17.1265L9.46416 16.2916C9.93116 15.6613 10.1574 14.8847 10.1019 14.1022C10.0464 13.3197 9.71297 12.5829 9.16174 12.0247L7.18939 10.0524C6.91832 9.78123 6.59649 9.56614 6.24228 9.41939C5.88807 9.27265 5.50841 9.19711 5.12501 9.19711C4.7416 9.19711 4.36195 9.27265 4.00774 9.41939C3.65353 9.56614 3.33169 9.78123 3.06062 10.0524L1.68656 11.4264C0.756347 12.3559 0.17265 13.576 0.0326872 14.8835C-0.107276 16.191 0.204944 17.5071 0.917342 18.6124C4.79829 24.7159 9.97134 29.8934 16.0715 33.7797C17.1794 34.4954 18.5 34.8077 19.8112 34.664C21.1223 34.5203 22.344 33.9294 23.2706 32.9907L24.5855 31.6364C25.1315 31.0881 25.438 30.3458 25.438 29.572C25.438 28.7982 25.1315 28.0559 24.5855 27.5076L23.0207 25.9232ZM23.6782 30.7028L22.3173 32.0637C21.6025 32.7839 20.6626 33.2373 19.6541 33.3486C18.6457 33.4598 17.6295 33.2222 16.775 32.6752C10.8308 28.894 5.78985 23.8531 2.00871 17.9089C1.46051 17.0547 1.22213 16.0383 1.33342 15.0295C1.44471 14.0207 1.89893 13.0807 2.62013 12.3666L3.97447 11.0057C4.2753 10.705 4.68323 10.5361 5.10857 10.5361C5.53391 10.5361 5.94185 10.705 6.24267 11.0057L8.21501 12.978C8.54375 13.312 8.74281 13.7522 8.77655 14.2196C8.81028 14.687 8.67647 15.1512 8.3991 15.5289L7.77452 16.3639C7.37622 16.8941 7.18051 17.5493 7.2227 18.2111C7.2649 18.8729 7.54221 19.4979 8.00463 19.9733L15.0985 27.0408C15.5706 27.5072 16.1939 27.7893 16.8558 27.8363C17.5177 27.8834 18.1746 27.6921 18.7079 27.2972L19.5428 26.6398C19.9206 26.3624 20.3847 26.2286 20.8522 26.2623C21.3196 26.2961 21.7597 26.4951 22.0937 26.8239L23.6782 28.4083C23.8319 28.5573 23.9541 28.7356 24.0375 28.9326C24.121 29.1297 24.164 29.3416 24.164 29.5556C24.164 29.7696 24.121 29.9814 24.0375 30.1785C23.9541 30.3756 23.8319 30.5539 23.6782 30.7028Z" fill="white"/>
<path d="M30.8115 0H15.5127C14.828 0.00173569 14.1718 0.274511 13.6876 0.758686C13.2035 1.24286 12.9307 1.89905 12.929 2.58377V12.222C12.9307 12.9067 13.2035 13.5629 13.6876 14.047C14.1718 14.5312 14.828 14.804 15.5127 14.8057C15.8493 14.8057 16.172 14.9394 16.41 15.1774C16.6479 15.4153 16.7816 15.7381 16.7816 16.0746V20.4598C16.7819 20.5923 16.8223 20.7217 16.8975 20.8309C16.9727 20.9401 17.0791 21.024 17.2028 21.0716C17.3265 21.1192 17.4617 21.1284 17.5907 21.0978C17.7197 21.0672 17.8364 20.9984 17.9256 20.9003L23.0734 15.2199C23.1923 15.0888 23.3374 14.9842 23.4994 14.9128C23.6614 14.8415 23.8365 14.805 24.0135 14.8057H30.8115C31.4963 14.804 32.1524 14.5312 32.6366 14.047C33.1208 13.5629 33.3936 12.9067 33.3953 12.222V2.58377C33.3936 1.89905 33.1208 1.24286 32.6366 0.758686C32.1524 0.274511 31.4963 0.00173569 30.8115 0ZM32.0804 12.222C32.0787 12.5579 31.9444 12.8797 31.7069 13.1173C31.4693 13.3549 31.1475 13.4891 30.8115 13.4908H24.0135C23.6525 13.4928 23.2957 13.5692 22.9654 13.7151C22.6351 13.861 22.3384 14.0734 22.0938 14.3389L18.0965 18.7504V16.0746C18.0965 15.3893 17.8243 14.7321 17.3397 14.2476C16.8552 13.763 16.198 13.4908 15.5127 13.4908C15.1762 13.4908 14.8535 13.3571 14.6155 13.1192C14.3775 12.8812 14.2439 12.5585 14.2439 12.222V2.58377C14.2439 2.24724 14.3775 1.9245 14.6155 1.68654C14.8535 1.44858 15.1762 1.3149 15.5127 1.3149H30.8115C31.1475 1.31662 31.4693 1.45086 31.7069 1.68845C31.9444 1.92604 32.0787 2.24778 32.0804 2.58377V12.222Z" fill="white"/>
<path d="M26.3804 6.67968H23.8163V4.11564C23.8163 3.94127 23.747 3.77405 23.6238 3.65075C23.5005 3.52746 23.3332 3.45819 23.1589 3.45819C22.9845 3.45819 22.8173 3.52746 22.694 3.65075C22.5707 3.77405 22.5014 3.94127 22.5014 4.11564V6.67968H19.9439C19.7696 6.67968 19.6024 6.74895 19.4791 6.87225C19.3558 6.99554 19.2865 7.16277 19.2865 7.33713C19.2865 7.5115 19.3558 7.67872 19.4791 7.80202C19.6024 7.92531 19.7696 7.99458 19.9439 7.99458H22.5014V10.5586C22.5014 10.733 22.5707 10.9002 22.694 11.0235C22.8173 11.1468 22.9845 11.2161 23.1589 11.2161C23.3332 11.2161 23.5005 11.1468 23.6238 11.0235C23.747 10.9002 23.8163 10.733 23.8163 10.5586V7.99458H26.3804C26.5547 7.99458 26.722 7.92531 26.8452 7.80202C26.9685 7.67872 27.0378 7.5115 27.0378 7.33713C27.0378 7.16277 26.9685 6.99554 26.8452 6.87225C26.722 6.74895 26.5547 6.67968 26.3804 6.67968Z" fill="white"/>
</svg>
