<svg width="1340" height="440" viewBox="0 0 1340 440" fill="none" xmlns="http://www.w3.org/2000/svg">
<mask id="mask0_104_639" style="mask-type:alpha" maskUnits="userSpaceOnUse" x="0" y="0" width="1340" height="440">
<rect y="-7.62939e-06" width="1340" height="440" rx="50" fill="url(#paint0_linear_104_639)"/>
</mask>
<g mask="url(#mask0_104_639)">
<g opacity="0.1">
<path d="M694.536 218.411L694.536 152.526L751.413 119.583L808.29 152.526L808.29 218.411L751.413 251.354L694.536 218.411ZM697.529 152.526L697.529 215.417L751.413 245.365L805.297 215.417L805.297 152.526L751.413 122.578L697.529 152.526Z" fill="white"/>
<path d="M703.516 389.115L703.516 338.203L748.419 311.25L793.323 338.203L793.323 389.115L748.419 416.068L703.516 389.115ZM706.51 338.203L706.51 389.115L748.419 413.073L790.329 389.115L790.329 338.203L748.419 314.245L706.51 338.203Z" fill="white"/>
<path d="M568.806 281.302L568.806 224.401L616.703 197.448L664.6 224.401L664.6 278.307L616.703 305.26L568.806 281.302ZM571.8 227.396L571.8 281.302L616.703 308.255L661.606 281.302L661.606 227.396L616.703 200.443L571.8 227.396Z" fill="white"/>
<path d="M479 209.427L479 179.479L505.942 164.505L532.884 179.479L532.884 212.422L505.942 227.396L479 209.427ZM479 179.479L479 209.427L505.942 224.401L532.884 209.427L532.884 179.479L505.942 164.505L479 179.479Z" fill="white"/>
<path d="M592.755 131.563L592.755 104.609L616.703 92.6302L640.652 104.609L640.652 131.563L616.703 143.542L592.755 131.563ZM595.748 104.609L595.748 131.563L616.703 143.542L637.658 131.563L637.658 104.609L616.703 92.6302L595.748 104.609Z" fill="white"/>
<path d="M589.761 386.12L589.761 356.172L616.703 341.198L643.645 356.172L643.645 386.12L616.703 401.094L589.761 386.12ZM592.755 356.172L592.755 386.12L616.703 401.094L640.652 386.12L640.652 356.172L616.703 341.198L592.755 356.172Z" fill="white"/>
<path d="M670.587 440.026L670.587 410.078L697.529 395.104L724.471 410.078L724.471 440.026L697.529 455L670.587 440.026ZM673.581 410.078L673.581 440.026L697.529 455L721.478 440.026L721.478 410.078L697.529 395.104L673.581 410.078Z" fill="white"/>
<path d="M844.213 431.042L844.213 398.099L874.148 380.13L904.084 398.099L904.084 431.042L874.148 449.01L844.213 431.042ZM844.213 398.099L844.213 431.042L871.155 446.016L898.097 431.042L898.097 398.099L871.155 383.125L844.213 398.099Z" fill="white"/>
<path d="M948.987 251.354L948.987 230.391L963.955 221.406L978.923 230.391L978.923 248.359L963.955 257.344L948.987 251.354ZM948.987 230.391L948.987 248.359L963.955 257.344L978.923 248.359L978.923 230.391L963.955 221.406L948.987 230.391Z" fill="white"/>
<path d="M859.181 125.573L859.181 95.625L883.129 80.6511L907.077 95.625L907.077 122.578L883.129 137.552L859.181 125.573ZM862.174 98.6198L862.174 125.573L883.129 137.552L907.077 125.573L907.077 98.6198L883.129 86.6407L862.174 98.6198Z" fill="white"/>
<path d="M781.348 56.6927L781.348 26.7448L808.29 11.7709L835.232 26.7448L835.232 56.6927L808.29 71.6667L781.348 56.6927ZM781.348 29.7396L781.348 59.6875L805.297 74.6615L829.245 59.6875L829.245 29.7396L805.297 14.7657L781.348 29.7396Z" fill="white"/>
<path d="M832.239 314.245L832.239 269.323L871.155 248.359L910.071 269.323L910.071 314.245L871.155 335.208L832.239 314.245ZM835.232 269.323L835.232 311.25L871.155 332.214L907.077 311.25L907.077 269.323L871.155 248.359L835.232 269.323Z" fill="white"/>
<path d="M802.303 152.526L862.174 122.578L862.174 125.573L805.297 155.521L802.303 152.526Z" fill="white"/>
<path d="M910.071 269.323L948.987 248.359L948.987 251.354L910.071 269.323Z" fill="white"/>
<path d="M751.413 314.245L751.413 248.359L748.419 248.359L748.419 314.245L751.413 314.245Z" fill="white"/>
<path d="M637.658 131.563L637.658 128.568L697.529 152.526L694.536 155.521L637.658 131.563Z" fill="white"/>
<path d="M616.703 200.443L616.703 143.542L613.71 143.542L613.71 200.443L616.703 200.443Z" fill="white"/>
<path d="M532.884 209.427L568.806 224.401L568.806 227.396L532.884 209.427Z" fill="white"/>
<path d="M793.323 338.203L835.232 314.245L793.323 338.203Z" fill="white"/>
<path d="M874.148 380.13L874.148 335.208L871.155 335.208L871.155 380.13L874.148 380.13Z" fill="white"/>
<path d="M1119.62 191.458L1119.62 128.568L1176.5 95.625L1233.37 128.568L1233.37 194.453L1176.5 227.396L1119.62 191.458ZM1122.61 128.568L1122.61 191.458L1176.5 221.406L1230.38 191.458L1230.38 128.568L1176.5 98.6198L1122.61 128.568Z" fill="white"/>
<path d="M1131.59 365.156L1131.59 314.245L1176.5 284.297L1221.4 311.25L1221.4 362.161L1176.5 389.115L1131.59 365.156ZM1131.59 314.245L1131.59 365.156L1173.5 389.115L1215.41 365.156L1215.41 314.245L1176.5 287.292L1131.59 314.245Z" fill="white"/>
<path d="M993.89 254.349L993.89 200.443L1041.79 173.49L1089.68 200.443L1089.68 254.349L1041.79 281.302L993.89 254.349ZM996.884 200.443L996.884 254.349L1041.79 281.302L1086.69 254.349L1086.69 200.443L1041.79 173.49L996.884 200.443Z" fill="white"/>
<path d="M904.084 185.469L904.084 155.521L931.026 137.552L957.968 155.521L957.968 188.464L931.026 203.437L904.084 185.469ZM904.084 155.521L904.084 185.469L931.026 200.443L957.968 185.469L957.968 155.521L931.026 140.547L904.084 155.521Z" fill="white"/>
<path d="M1017.84 104.609L1017.84 77.6563L1041.79 65.6771L1065.74 77.6563L1065.74 104.609L1041.79 116.589L1017.84 104.609ZM1020.83 80.6511L1020.83 107.604L1041.79 119.583L1062.74 107.604L1062.74 80.6511L1041.79 68.6719L1020.83 80.6511Z" fill="white"/>
<path d="M1017.84 362.161L1017.84 332.214L1044.78 317.24L1071.72 332.214L1071.72 362.161L1044.78 377.135L1017.84 362.161ZM1017.84 332.214L1017.84 362.161L1041.79 377.135L1065.74 362.161L1065.74 332.214L1044.78 317.24L1017.84 332.214Z" fill="white"/>
<path d="M1095.67 416.068L1095.67 386.12L1122.61 371.146L1149.55 386.12L1149.55 416.068L1122.61 431.042L1095.67 416.068ZM1098.66 386.12L1098.66 416.068L1122.61 431.042L1146.56 416.068L1146.56 386.12L1122.61 371.146L1098.66 386.12Z" fill="white"/>
<path d="M1269.3 407.083L1269.3 374.141L1299.23 356.172L1329.17 374.141L1329.17 407.083L1299.23 425.052L1269.3 407.083ZM1269.3 374.141L1269.3 407.083L1296.24 422.057L1323.18 407.083L1323.18 374.141L1296.24 359.167L1269.3 374.141Z" fill="white"/>
<path d="M1287.26 98.6198L1287.26 71.6667L1308.21 59.6875L1332.16 74.6615L1332.16 101.615L1308.21 116.589L1287.26 98.6198ZM1287.26 71.6667L1287.26 98.6198L1311.21 110.599L1332.16 98.6198L1332.16 71.6667L1308.21 59.6875L1287.26 71.6667Z" fill="white"/>
<path d="M1206.43 32.7344L1206.43 2.78651L1233.37 -12.1874L1257.32 2.78652L1257.32 32.7344L1233.37 47.7084L1206.43 32.7344ZM1206.43 2.78651L1206.43 32.7344L1233.37 47.7084L1257.32 32.7344L1257.32 2.78652L1233.37 -12.1874L1206.43 2.78651Z" fill="white"/>
<path d="M1260.32 290.286L1260.32 245.365L1299.23 221.406L1338.15 242.37L1338.15 287.292L1299.23 308.255L1260.32 290.286ZM1260.32 245.365L1260.32 287.292L1296.24 308.255L1335.15 287.292L1335.15 245.365L1299.23 224.401L1260.32 245.365Z" fill="white"/>
<path d="M1230.38 128.568L1287.26 98.6198L1230.38 128.568Z" fill="white"/>
<path d="M1335.15 245.365L1374.07 224.401L1335.15 245.365Z" fill="white"/>
<path d="M1176.5 287.292L1176.5 221.406L1173.5 221.406L1173.5 287.292L1176.5 287.292Z" fill="white"/>
<path d="M1062.74 104.609L1065.74 104.609L1122.61 128.568L1062.74 104.609Z" fill="white"/>
<path d="M1041.79 173.49L1041.79 116.589L1038.79 116.589L1038.79 173.49L1041.79 173.49Z" fill="white"/>
<path d="M957.968 185.469L996.884 200.443L993.89 203.438L957.968 185.469Z" fill="white"/>
<path d="M1218.41 311.25L1260.32 287.292L1260.32 290.286L1218.41 314.245L1218.41 311.25Z" fill="white"/>
<path d="M1299.23 356.172L1299.23 311.25L1296.24 311.25L1296.24 356.172L1299.23 356.172Z" fill="white"/>
</g>
</g>
<defs>
<linearGradient id="paint0_linear_104_639" x1="11.5" y1="13.9436" x2="1336.1" y2="406.223" gradientUnits="userSpaceOnUse">
<stop stop-color="#FF8138"/>
<stop offset="1" stop-color="#B93578"/>
</linearGradient>
</defs>
</svg>
